HIERARCHY
ROOT Hips
{
	OFFSET -3.958830 18.904000 13.208200
	CHANNELS 6 Xposition Yposition Zposition Zrotation Yrotation Xrotation 
	JOINT LHipJoint
	{
		OFFSET 0.000000 0.000000 0.000000
		CHANNELS 3 Zrotation Yrotation Xrotation
		JOINT LeftUpLeg
		{
			OFFSET 1.800000 -1.400000 0.085000
			CHANNELS 3 Zrotation Yrotation Xrotation
			JOINT LeftLeg
			{
				OFFSET 2.215000 -6.000000 0.000000
				CHANNELS 3 Zrotation Yrotation Xrotation
				JOINT LeftFoot
				{
					OFFSET 2.500000 -6.900000 0.000000
					CHANNELS 3 Zrotation Yrotation Xrotation
					JOINT LeftToeBase
					{
						OFFSET 0.200000 -0.500000 1.950000
						CHANNELS 3 Zrotation Yrotation Xrotation
						End Site
						{
							OFFSET 0.000000 0.000000 0.000000
						}
					}
				}
			}
		}
	}
	JOINT RHipJoint
	{
		OFFSET 0.000000 0.000000 0.000000
		CHANNELS 3 Zrotation Yrotation Xrotation
		JOINT RightUpLeg
		{
			OFFSET -1.800000 -1.400000 0.085000
			CHANNELS 3 Zrotation Yrotation Xrotation
			JOINT RightLeg
			{
				OFFSET -2.215000 -6.000000 0.000000
				CHANNELS 3 Zrotation Yrotation Xrotation
				JOINT RightFoot
				{
					OFFSET -2.500000 -6.900000 0.000000
					CHANNELS 3 Zrotation Yrotation Xrotation
					JOINT RightToeBase
					{
						OFFSET -0.200000 -0.500000 1.950000
						CHANNELS 3 Zrotation Yrotation Xrotation
						End Site
						{
							OFFSET 0.000000 0.000000 0.000000
						}
					}
				}
			}
		}
	}
	JOINT LowerBack
	{
		OFFSET 0.000000 0.000000 0.000000
		CHANNELS 3 Zrotation Yrotation Xrotation
		JOINT Spine
		{
			OFFSET -0.087000 1.940000 -0.288900
			CHANNELS 3 Zrotation Yrotation Xrotation
			JOINT Spine1
			{
				OFFSET 0.000000 1.950000 0.060000
				CHANNELS 3 Zrotation Yrotation Xrotation
				JOINT Neck
				{
					OFFSET 0.000000 0.000000 0.000000
					CHANNELS 3 Zrotation Yrotation Xrotation
					JOINT Neck1
					{
						OFFSET 0.000000 1.600000 0.340000
						CHANNELS 3 Zrotation Yrotation Xrotation
						JOINT Head
						{
							OFFSET 0.000000 1.667000 -0.240000
							CHANNELS 3 Zrotation Yrotation Xrotation
							End Site
							{
								OFFSET 0.000000 0.000000 0.000000
							}
						}
					}
				}
				JOINT LeftShoulder
				{
					OFFSET 0.000000 0.000000 0.000000
					CHANNELS 3 Zrotation Yrotation Xrotation
					JOINT LeftArm
					{
						OFFSET 2.700000 1.550000 -0.730000
						CHANNELS 3 Zrotation Yrotation Xrotation
						JOINT LeftForeArm
						{
							OFFSET 5.450000 0.000000 0.000000
							CHANNELS 3 Zrotation Yrotation Xrotation
							JOINT LeftHand
							{
								OFFSET 3.450000 0.000000 0.000000
								CHANNELS 3 Zrotation Yrotation Xrotation
								JOINT LeftHandIndex1
								{
									OFFSET 0.750000 0.000000 0.000000
									CHANNELS 3 Zrotation Yrotation Xrotation
									End Site
									{
										OFFSET 0.000000 0.000000 0.000000
									}
								}
							}
						}
					}
				}
				JOINT RightShoulder
				{
					OFFSET 0.000000 0.000000 0.000000
					CHANNELS 3 Zrotation Yrotation Xrotation
					JOINT RightArm
					{
						OFFSET -2.700000 1.550000 -0.730000
						CHANNELS 3 Zrotation Yrotation Xrotation
						JOINT RightForeArm
						{
							OFFSET -5.450000 0.000000 0.000000
							CHANNELS 3 Zrotation Yrotation Xrotation
							JOINT RightHand
							{
								OFFSET -3.450000 0.000000 0.000000
								CHANNELS 3 Zrotation Yrotation Xrotation
								JOINT RightHandIndex1
								{
									OFFSET -0.750000 0.000000 0.000000
									CHANNELS 3 Zrotation Yrotation Xrotation
									End Site
									{
										OFFSET 0.000000 0.000000 0.000000
									}
								}
							}
						}
					}
				}
			}
		}
	}
}
MOTION
Frames: 7
Frame Time: 0.016667
11.830010 16.031010 3.510570 -0.853690 16.365712 -2.716723 -15.136629 11.681563 4.017071 14.450106 -3.063494 -30.705438 -17.021881 13.336068 28.709737 0.214500 7.188953 1.816450 0.213430 0.172920 0.178490 18.325643 -11.515121 1.768452 -24.034382 0.319311 -5.508256 5.973879 -7.406309 18.078833 -0.244206 -5.043397 2.479495 0.204850 0.084190 0.087520 -3.987791 0.923199 -7.400733 6.278831 5.486266 8.681270 3.860533 5.689841 11.574372 1.895515 1.250643 -6.503189 1.778310 -1.709713 40.023619 -1.762590 0.076760 -4.704030 -20.868800 0.520794 4.514793 -61.830906 -6.948426 -2.288240 -14.586599 -87.804786 8.125944 -3.538160 3.529868 0.084860 0.103860 -0.018090 0.032260 18.182791 2.703624 0.517322 49.017267 18.814160 -3.993278 3.280250 63.743198 0.930261 2.072633 -1.577857 -0.077870 0.116130 -0.003080 -0.077990 
11.916960 16.054740 3.490370 -1.658361 18.243711 -4.637931 -15.140644 11.882201 3.918189 13.902041 -3.110526 -29.228686 -16.479022 12.933284 28.574562 0.178959 7.038834 1.865799 0.249480 0.218240 0.191760 18.285080 -11.684000 1.672206 -23.961579 0.095041 -5.299797 5.244071 -7.864224 21.358138 -0.281256 -5.254400 2.393157 0.236560 0.076910 0.083180 -3.993346 0.827495 -7.377495 7.217866 5.761493 9.631038 5.085468 5.935796 13.206490 1.763646 2.023591 -7.014376 2.566289 -3.752445 42.890348 -1.085510 -1.531230 -4.493350 -21.090214 -2.675331 5.007875 -60.365687 -12.090398 -0.346474 -151.226134 -87.890629 146.422180 -3.412422 2.944327 0.087460 0.092690 -0.006870 0.043020 18.787695 5.377324 1.092146 45.145720 19.222925 -4.102230 4.264031 62.540578 1.553520 2.071192 -1.577624 -0.069680 0.131630 -0.015970 -0.070160 
12.004790 16.079530 3.463340 -2.320953 20.284264 -6.514836 -15.149624 12.123808 3.820411 13.358859 -3.091715 -27.520932 -16.048940 12.523514 28.154334 0.146858 6.860229 1.921780 0.286200 0.267180 0.208520 18.238139 -11.850441 1.550286 -23.760089 -0.006808 -6.015351 3.900950 -8.238040 25.861862 -0.328988 -5.494043 2.286672 0.265070 0.059610 0.078510 -3.999315 0.682470 -7.331228 7.959686 5.645119 10.568057 5.887268 5.688668 15.049195 1.670457 2.516493 -7.803842 3.035314 -5.095325 46.330021 -0.484010 -2.519880 -4.343310 -19.827926 -6.007082 5.735711 -58.874370 -16.726437 8.494161 122.190004 -81.803685 -124.504712 -3.883433 3.099752 0.097140 0.073770 0.014790 0.050810 17.881126 8.269125 1.773650 42.643858 20.668638 -3.427132 6.631130 59.631935 2.801720 2.091200 -1.564034 -0.057750 0.143230 -0.030310 -0.064270 
12.086680 16.118350 3.431400 -3.031251 23.009481 -8.456530 -15.161783 12.358395 3.744022 12.793931 -3.117176 -25.894993 -15.575290 12.108968 27.776677 0.112832 6.690221 1.977308 0.316830 0.307320 0.219540 18.189213 -11.993113 1.457959 -23.380927 0.003677 -7.132815 2.260301 -8.593405 31.319933 -0.404999 -5.874875 2.133084 0.289560 0.045460 0.071550 -4.032734 0.515424 -7.343553 8.908419 5.200468 11.935908 6.284662 5.115222 16.551877 1.551223 2.734932 -8.672432 3.091648 -6.083469 50.246090 -0.065830 -3.433230 -4.076140 -18.147543 -9.127380 6.286848 -55.514064 -21.069327 10.703765 120.600609 -79.683654 -120.774880 -3.906271 2.911894 0.109980 0.055660 0.032830 0.058350 16.543011 11.116003 2.436312 40.544304 22.494854 -2.471035 9.772258 57.295738 4.276842 2.112517 -1.552642 -0.050650 0.157210 -0.040050 -0.059550 
12.170450 16.150380 3.392400 -4.041183 25.998382 -10.661620 -15.153857 12.545035 3.660684 12.265584 -3.161686 -24.438304 -14.929963 11.838414 27.985094 0.103042 6.614139 2.005587 0.338350 0.332460 0.225140 18.175757 -12.073762 1.428669 -22.849774 0.203546 -8.789660 0.662203 -9.103661 37.970322 -0.532084 -6.511724 1.893600 0.305580 0.037450 0.068430 -4.175379 0.369571 -7.398224 10.688636 4.433116 13.518427 6.319911 4.180580 17.725439 1.277001 2.472628 -9.394656 2.249454 -6.463933 54.428824 0.018420 -4.157800 -3.224510 -15.890157 -11.813978 6.567283 -50.230936 -25.147778 12.475285 115.250689 -78.381766 -113.306176 -3.976213 2.440643 0.109010 0.045820 0.039610 0.065260 14.856802 13.736670 2.878763 38.683983 24.834411 -1.227966 12.186394 54.817620 5.339459 2.138092 -1.538256 -0.041570 0.159860 -0.047820 -0.052460 
12.245920 16.180620 3.348990 -5.295501 29.197844 -13.146591 -15.148037 12.738494 3.533273 11.646695 -3.152973 -22.926252 -13.694299 11.295196 28.067524 0.074987 6.422848 2.074046 0.354190 0.351990 0.235980 18.160455 -12.133921 1.469206 -21.550341 0.508692 -10.558550 -1.460443 -9.220966 44.653527 -0.700843 -7.211214 1.650240 0.313120 0.022240 0.066620 -4.348025 0.260124 -7.460525 12.704536 3.639071 15.554781 5.859625 3.331305 18.529586 1.158308 2.330852 -10.099662 1.728273 -6.885685 58.570903 -0.134360 -4.609460 -2.333130 -13.997569 -14.615626 6.544045 -42.969267 -28.782095 12.866989 109.481657 -77.527872 -104.796310 -4.002845 1.674899 0.109230 0.035730 0.051460 0.066270 13.192680 16.346643 3.486532 36.926454 26.431671 -0.598845 14.446893 53.465097 6.227748 2.157787 -1.533016 -0.029720 0.156530 -0.056390 -0.049070 
12.312820 16.206010 3.294930 -6.391870 32.540571 -15.449483 -15.146957 12.868484 3.395457 10.803255 -3.212485 -21.476181 -12.581724 10.737480 28.001485 0.051070 6.219372 2.152648 0.365720 0.365020 0.244790 18.161454 -12.146939 1.545563 -19.736600 0.909386 -13.006134 -4.387135 -8.710181 51.444121 -0.894194 -7.952982 1.406778 0.317340 0.008940 0.067330 -4.558420 0.221706 -7.491012 14.624788 2.838936 17.665054 5.131770 2.609191 18.344267 1.095367 2.241536 -10.169212 1.401376 -7.364607 62.547784 -0.459790 -5.003500 -1.268810 -11.892765 -17.036071 4.814723 -35.989201 -31.834974 8.554213 89.736308 -83.079165 -81.344404 -3.476336 -0.999140 0.103460 0.031660 0.058230 0.067020 11.296112 18.312257 4.314108 35.926660 27.543659 0.075385 16.964510 52.671477 7.119482 2.183996 -1.543791 -0.017570 0.147050 -0.064750 -0.046530 
